<svg xmlns="http://www.w3.org/2000/svg" width="390" height="100" viewBox="0 0 390 100" fill="none"><filter id="sh" x="-40%" y="-40%" width="180%" height="180%"><feDropShadow dx="0" dy="6" stdDeviation="10" flood-color="#1B1236" flood-opacity="0.16"/></filter><g filter="url(#sh)"><rect x="12" y="10" width="366" height="76" rx="38" fill="#FFFFFF"/></g><rect x="35.0" y="20" width="76" height="56" rx="28" fill="#4941A5"/><g transform="translate(59.0,26) scale(.58)" color="#FFFFFF"><path d="M24 5 c-8 0 -14 6 -14 14 c0 11 14 24 14 24 s14 -13 14 -24 c0 -8 -6 -14 -14 -14Z" fill="currentColor"/><circle cx="24" cy="19" r="5.5" fill="#FFFFFF"/></g><text x="73.0" y="66" font-family="Fredoka, 'Baloo 2', 'Nunito', 'Segoe UI', system-ui, sans-serif" font-size="13" font-weight="700" fill="#FFFFFF" text-anchor="middle" dominant-baseline="central">Map</text><g transform="translate(181.0,26) scale(.58)" color="#B4AFC6"><rect x="7" y="26" width="9" height="16" rx="3" fill="currentColor"/><rect x="19" y="16" width="10" height="26" rx="3" fill="currentColor"/><rect x="32" y="22" width="9" height="20" rx="3" fill="currentColor"/></g><text x="195.0" y="66" font-family="Fredoka, 'Baloo 2', 'Nunito', 'Segoe UI', system-ui, sans-serif" font-size="13" font-weight="700" fill="#B4AFC6" text-anchor="middle" dominant-baseline="central">Leaderboard</text><g transform="translate(303.0,26) scale(.58)" color="#B4AFC6"><path d="M9 16 h30 l3 8 H6Z" fill="currentColor"/><rect x="9" y="24" width="30" height="18" rx="3" fill="currentColor"/><rect x="20" y="30" width="8" height="12" rx="2" fill="#FFFFFF"/></g><text x="317.0" y="66" font-family="Fredoka, 'Baloo 2', 'Nunito', 'Segoe UI', system-ui, sans-serif" font-size="13" font-weight="700" fill="#B4AFC6" text-anchor="middle" dominant-baseline="central">Store</text></svg>